<svg width="30" height="31" viewBox="0 0 30 31" fill="none" xmlns="http://www.w3.org/2000/svg">
<path d="M15.3 6.30499C15.195 6.30499 15.09 6.30501 15 6.32001V0.514992C15.105 0.499992 15.195 0.5 15.3 0.5C18.69 0.5 21.6 1.535 23.985 3.29C24.735 3.83 24.795 4.92501 24.135 5.57001L22.05 7.61001C21.54 8.10501 20.76 8.195 20.175 7.79C19.05 7.01 17.445 6.30499 15.3 6.30499Z" fill="#435673"/>
<path d="M29.7 15.8299C29.7 20.4049 28.065 24.2449 25.23 26.8699C22.755 29.1649 19.35 30.4999 15.3 30.4999C15.195 30.4999 15.105 30.4999 15 30.4849V24.6799C15.105 24.6949 15.195 24.6949 15.3 24.6949C17.535 24.6949 19.23 24.0799 20.505 23.1949C22.5 21.7999 23.4 19.7149 23.565 18.3349H16.8C15.975 18.3349 15.3 17.6599 15.3 16.8349V14.2699C15.3 13.4449 15.975 12.7699 16.8 12.7699H28.125C28.89 12.7699 29.535 13.3399 29.61 14.1049C29.67 14.6299 29.7 15.1849 29.7 15.8299Z" fill="#435673"/>
<path opacity="0.4" d="M6.74981 12.53C6.44981 13.46 6.26981 14.465 6.26981 15.5C6.26981 16.535 6.44981 17.525 6.76481 18.47C7.93481 21.995 11.1748 24.56 14.9998 24.68V30.485C9.26981 30.38 4.33481 27.05 1.91981 22.235H1.9048C0.884804 20.195 0.299805 17.915 0.299805 15.5C0.299805 13.085 0.884804 10.805 1.9048 8.76501C4.3198 3.95001 9.25481 0.620015 14.9998 0.515015V6.32003C11.4598 6.42503 8.44481 8.61502 7.06481 11.72C6.94481 11.99 6.83981 12.26 6.74981 12.53Z" fill="#435673"/>
</svg>
